<svg xmlns="http://www.w3.org/2000/svg" width="192.271" height="103.081"><text x="94.017" font-family="Helvetica, Segoe UI Emoji" font-size="36" fill="#fff" text-anchor="end" style="white-space:pre" dominant-baseline="text-before-edge" transform="translate(87.489 39.8)" stroke-opacity=".8" fill-opacity=".8">- rand</text><text x="72.033" font-family="Helvetica, Segoe UI Emoji" font-size="36" fill="#fff" text-anchor="end" style="white-space:pre" dominant-baseline="text-before-edge" transform="translate(28.71 18.296)" stroke-opacity=".9" fill-opacity=".9">pure</text><path d="M11.702 19.365c7.98 2.72 15.96 5.44 36.74 12.53m-36.74-12.53c13.68 4.67 27.37 9.34 36.74 12.53m0 0c17.23-3.78 34.46-7.57 56.39-12.38m-56.39 12.38 56.39-12.38M11.624 19.356c17.64-2.38 35.28-4.76 64.09-8.65m-64.09 8.65c19.87-2.68 39.75-5.37 64.09-8.65m0 0c7.31 2.21 14.61 4.43 29.04 8.81m-29.04-8.81c10.85 3.29 21.7 6.58 29.04 8.81" stroke="#087f5b" stroke-width="2" fill="none" stroke-linecap="round"/><path d="M74.903 71.655c.27-21.03.54-42.07.77-60.33m-.77 60.33c.19-14.44.37-28.87.77-60.33" stroke="#087f5b" stroke-width="2" fill="none" stroke-opacity=".4" fill-opacity=".4" stroke-linecap="round"/><path d="M11.166 79.854c.03-13.23.07-26.46.15-60.49m-.15 60.49c.04-15.34.08-30.68.15-60.49" stroke="#087f5b" stroke-width="2" fill="none" stroke-linecap="round"/><path d="M48.062 92.771c.05-19.93.1-39.85.15-60.49m-.15 60.49c.06-21.96.11-43.91.15-60.49" stroke="#087f5b" stroke-width="2" fill="none" stroke-opacity=".4" fill-opacity=".4" stroke-linecap="round"/><path d="M104.684 80.395c.04-15.05.08-30.11.15-60.49m-.15 60.49c.04-15.12.08-30.24.15-60.49M11.36 80.55c7.61 2.6 15.23 5.19 36.74 12.53M11.36 80.55c11.8 4.03 23.61 8.05 36.74 12.53m0 0c12.2-2.68 24.41-5.36 56.39-12.38M48.1 93.08c22.2-4.87 44.41-9.75 56.39-12.38" stroke="#087f5b" stroke-width="2" fill="none" stroke-linecap="round"/><path d="M11.282 80.54c19.08-2.58 38.17-5.15 64.09-8.65m-64.09 8.65c20.95-2.83 41.89-5.66 64.09-8.65m0 0c9.03 2.74 18.07 5.48 29.04 8.81m-29.04-8.81c8.26 2.51 16.53 5.02 29.04 8.81" stroke="#087f5b" stroke-width="2" fill="none" stroke-opacity=".4" fill-opacity=".4" stroke-linecap="round"/><path d="M11.425 19.011c11.02 3.76 22.04 7.52 36.74 12.53m-36.74-12.53c12.73 4.34 25.46 8.69 36.74 12.53m0 0 56.39-12.38m-56.39 12.38c13.8-3.03 27.61-6.06 56.39-12.38M11.348 19.002c19.91-2.69 39.81-5.38 64.09-8.65m-64.09 8.65c14.54-1.96 29.08-3.93 64.09-8.65m0 0c9.08 2.75 18.17 5.51 29.04 8.81m-29.04-8.81c8.46 2.56 16.92 5.13 29.04 8.81" stroke="#364fc7" stroke-width="2" fill="none" stroke-linecap="round"/><path d="M74.627 71.3c.19-14.52.37-29.04.77-60.33m-.77 60.33.77-60.33" stroke="#364fc7" stroke-width="2" fill="none" stroke-opacity=".4" fill-opacity=".4" stroke-linecap="round"/><path d="M10.89 79.5c.05-21.02.11-42.04.15-60.49m-.15 60.49c.05-21.22.11-42.43.15-60.49" stroke="#364fc7" stroke-width="2" fill="none" stroke-linecap="round"/><path d="M47.786 92.418c.06-23.8.12-47.6.15-60.49m-.15 60.49c.04-17.09.09-34.17.15-60.49" stroke="#364fc7" stroke-width="2" fill="none" stroke-opacity=".4" fill-opacity=".4" stroke-linecap="round"/><path d="M104.407 80.042c.05-19.02.1-38.05.15-60.49m-.15 60.49c.04-16.96.09-33.92.15-60.49M11.083 80.196c11.31 3.86 22.62 7.72 36.74 12.53m-36.74-12.53c11.11 3.79 22.22 7.58 36.74 12.53m0 0c20.13-4.42 40.26-8.84 56.39-12.38m-56.39 12.38c18.35-4.03 36.71-8.06 56.39-12.38" stroke="#364fc7" stroke-width="2" fill="none" stroke-linecap="round"/><path d="M11.006 80.187c18.64-2.52 37.27-5.03 64.09-8.65m-64.09 8.65c21.02-2.84 42.05-5.68 64.09-8.65m0 0c10.46 3.17 20.93 6.35 29.04 8.81m-29.04-8.81 29.04 8.81" stroke="#364fc7" stroke-width="2" fill="none" stroke-opacity=".4" fill-opacity=".4" stroke-linecap="round"/><path d="M10.536 18.663c13.17 4.49 26.35 8.99 36.74 12.53m-36.74-12.53c8.48 2.89 16.95 5.78 36.74 12.53m0 0c15.66-3.44 31.32-6.88 56.39-12.38m-56.39 12.38 56.39-12.38M10.459 18.654c19.3-2.61 38.6-5.21 64.09-8.65m-64.09 8.65c22.68-3.06 45.37-6.13 64.09-8.65m0 0c7.56 2.29 15.12 4.59 29.04 8.81m-29.04-8.81c10.28 3.12 20.57 6.24 29.04 8.81" stroke="#1864ab" stroke-width="2" fill="none" stroke-linecap="round"/><path d="M73.737 70.953c.26-19.99.51-39.99.77-60.33m-.77 60.33c.3-23.59.6-47.18.77-60.33" stroke="#1864ab" stroke-width="2" fill="none" stroke-opacity=".4" fill-opacity=".4" stroke-linecap="round"/><path d="M10 79.152c.03-12.4.06-24.79.15-60.49M10 79.152c.05-21.04.11-42.07.15-60.49" stroke="#1864ab" stroke-width="2" fill="none" stroke-linecap="round"/><path d="M46.897 92.07c.04-16.82.09-33.64.15-60.49m-.15 60.49c.04-17.25.09-34.5.15-60.49" stroke="#1864ab" stroke-width="2" fill="none" stroke-opacity=".4" fill-opacity=".4" stroke-linecap="round"/><path d="M103.518 79.694c.03-13.2.07-26.4.15-60.49m-.15 60.49c.06-23.95.12-47.9.15-60.49M10.193 79.848c12.71 4.34 25.42 8.67 36.74 12.53m-36.74-12.53c8.7 2.97 17.4 5.93 36.74 12.53m0 0c11.65-2.56 23.3-5.12 56.39-12.38m-56.39 12.38c22.2-4.87 44.39-9.75 56.39-12.38" stroke="#1864ab" stroke-width="2" fill="none" stroke-linecap="round"/><path d="M10.116 79.839c15.37-2.08 30.74-4.15 64.09-8.65m-64.09 8.65c24.44-3.3 48.88-6.6 64.09-8.65m0 0c7.94 2.41 15.88 4.82 29.04 8.81m-29.04-8.81c9.04 2.74 18.09 5.49 29.04 8.81" stroke="#1864ab" stroke-width="2" fill="none" stroke-opacity=".4" fill-opacity=".4" stroke-linecap="round"/><text x="72.033" font-family="Helvetica, Segoe UI Emoji" font-size="36" fill="#0b7285" text-anchor="end" style="white-space:pre" dominant-baseline="text-before-edge" transform="translate(29.667 19.011)">pure</text><text x="94.017" font-family="Helvetica, Segoe UI Emoji" font-size="36" fill="#364fc7" text-anchor="end" style="white-space:pre" dominant-baseline="text-before-edge" transform="translate(88.254 40.728)">- rand</text></svg>